# xmcd
#
# Track frame offsets:
#	150
#	20870
#	45526
#	64539
#	77743
#	101633
#	115213
#	135250
#	158359
#	184297
#	203074
#	228517
#	254030
#	272207
#	299796
#
# Disc length: 4259
#
# Revision: 1
# Processed by: cddbd v1.5.1PL0 Copyright (c) Steve Scherf et al.
# Submitted via: dBpowerAMP V4.0
# Normalized: r0:TDELIM( - )
#
DISCID=da10a10f
DTITLE=Compilation of Blues guitarists - Blues Guitar Heroes CD2-2
DYEAR=1900
DGENRE=Blues
TTITLE0=Rory Gallagher - Tatoo's lady
TTITLE1=Ten years after - I woke up this morning
TTITLE2=John Mayall and the Bluesbreakers - Wake up call
TTITLE3=Gary Morev - Walking by myself
TTITLE4=Paul Personne - Loco loco
TTITLE5=Elmore James - Dust my broom
TTITLE6=Buddy Guy - Mustang
TTITLE7=Lucky Peterson - Compared to what
TTITLE8=Robert Cray - Nothing against you
TTITLE9=Luther Allison - I'm back
TTITLE10=John Lee Hooker - The healer
TTITLE11=Ben Harper - The woman in you
TTITLE12=JJ Cale - Guitar man
TTITLE13=Duke Robillard - Use what you got
TTITLE14=John Hammond - The fisrt time I met the blues
EXTD=
EXTT0=
EXTT1=
EXTT2=
EXTT3=
EXTT4=
EXTT5=
EXTT6=
EXTT7=
EXTT8=
EXTT9=
EXTT10=
EXTT11=
EXTT12=
EXTT13=
EXTT14=
PLAYORDER=
